<?xml version="1.0" encoding="UTF-8" standalone="no"?>
<!DOCTYPE svg PUBLIC "-//W3C//DTD SVG 1.1//EN"
 "http://www.w3.org/Graphics/SVG/1.1/DTD/svg11.dtd">
<!-- Generated by graphviz version 2.38.0 (20140413.2041)
 -->
<!-- Title: %3 Pages: 1 -->
<svg width="560pt" height="451pt"
 viewBox="0.00 0.00 560.19 451.00" xmlns="http://www.w3.org/2000/svg" xmlns:xlink="http://www.w3.org/1999/xlink">
<g id="graph0" class="graph" transform="scale(1 1) rotate(0) translate(4 447)">
<title>%3</title>
<polygon fill="white" stroke="none" points="-4,4 -4,-447 556.187,-447 556.187,4 -4,4"/>
<!-- lazy_iterator -->
<g id="node1" class="node"><title>lazy_iterator</title>
<ellipse fill="none" stroke="black" cx="299.093" cy="-425" rx="74.187" ry="18"/>
<text text-anchor="middle" x="299.093" y="-421.3" font-family="Ubuntu Mono" font-size="14.00">lazy_iterator</text>
</g>
<!-- work_queue -->
<g id="node2" class="node"><title>work_queue</title>
<ellipse fill="none" stroke="black" cx="299.093" cy="-338" rx="59.5901" ry="18"/>
<text text-anchor="middle" x="299.093" y="-334.3" font-family="Ubuntu Mono" font-size="14.00">work_queue</text>
</g>
<!-- lazy_iterator&#45;&gt;work_queue -->
<g id="edge1" class="edge"><title>lazy_iterator&#45;&gt;work_queue</title>
<path fill="none" stroke="black" d="M299.093,-406.799C299.093,-395.163 299.093,-379.548 299.093,-366.237"/>
<polygon fill="black" stroke="black" points="302.594,-366.175 299.093,-356.175 295.594,-366.175 302.594,-366.175"/>
<text text-anchor="middle" x="385.593" y="-377.8" font-family="Ubuntu Mono" font-size="14.00">blocks when buffer full</text>
</g>
<!-- work_thread_1 -->
<g id="node3" class="node"><title>work_thread_1</title>
<ellipse fill="none" stroke="black" cx="74.0934" cy="-265" rx="74.187" ry="18"/>
<text text-anchor="middle" x="74.0934" y="-261.3" font-family="Ubuntu Mono" font-size="14.00">work_thread_1</text>
</g>
<!-- work_queue&#45;&gt;work_thread_1 -->
<g id="edge2" class="edge"><title>work_queue&#45;&gt;work_thread_1</title>
<path fill="none" stroke="black" d="M259.386,-324.47C222.673,-312.885 167.835,-295.581 127.336,-282.801"/>
<polygon fill="black" stroke="black" points="128.219,-279.409 117.629,-279.738 126.112,-286.085 128.219,-279.409"/>
</g>
<!-- work_thread_2 -->
<g id="node4" class="node"><title>work_thread_2</title>
<ellipse fill="none" stroke="black" cx="240.093" cy="-265" rx="74.187" ry="18"/>
<text text-anchor="middle" x="240.093" y="-261.3" font-family="Ubuntu Mono" font-size="14.00">work_thread_2</text>
</g>
<!-- work_queue&#45;&gt;work_thread_2 -->
<g id="edge3" class="edge"><title>work_queue&#45;&gt;work_thread_2</title>
<path fill="none" stroke="black" d="M285.111,-320.174C277.764,-311.332 268.62,-300.329 260.497,-290.554"/>
<polygon fill="black" stroke="black" points="263.058,-288.159 253.975,-282.705 257.675,-292.633 263.058,-288.159"/>
</g>
<!-- ... -->
<g id="node5" class="node"><title>...</title>
<ellipse fill="none" stroke="black" cx="359.093" cy="-265" rx="27" ry="18"/>
<text text-anchor="middle" x="359.093" y="-261.3" font-family="Ubuntu Mono" font-size="14.00">...</text>
</g>
<!-- work_queue&#45;&gt;... -->
<g id="edge4" class="edge"><title>work_queue&#45;&gt;...</title>
<path fill="none" stroke="black" d="M313.313,-320.174C321.188,-310.855 331.091,-299.136 339.671,-288.984"/>
<polygon fill="black" stroke="black" points="342.422,-291.15 346.204,-281.253 337.076,-286.632 342.422,-291.15"/>
</g>
<!-- work_thread_n -->
<g id="node6" class="node"><title>work_thread_n</title>
<ellipse fill="none" stroke="black" cx="478.093" cy="-265" rx="74.187" ry="18"/>
<text text-anchor="middle" x="478.093" y="-261.3" font-family="Ubuntu Mono" font-size="14.00">work_thread_n</text>
</g>
<!-- work_queue&#45;&gt;work_thread_n -->
<g id="edge5" class="edge"><title>work_queue&#45;&gt;work_thread_n</title>
<path fill="none" stroke="black" d="M334.031,-323.142C361.849,-312.108 401.038,-296.564 431.521,-284.473"/>
<polygon fill="black" stroke="black" points="433.082,-287.619 441.087,-280.679 430.501,-281.112 433.082,-287.619"/>
</g>
<!-- result_queue -->
<g id="node7" class="node"><title>result_queue</title>
<ellipse fill="none" stroke="black" cx="299.093" cy="-178" rx="69.5877" ry="18"/>
<text text-anchor="middle" x="299.093" y="-174.3" font-family="Ubuntu Mono" font-size="14.00">result_queue</text>
</g>
<!-- work_thread_1&#45;&gt;result_queue -->
<g id="edge6" class="edge"><title>work_thread_1&#45;&gt;result_queue</title>
<path fill="none" stroke="black" d="M112.517,-249.485C151.094,-234.911 210.592,-212.434 251.99,-196.794"/>
<polygon fill="black" stroke="black" points="253.46,-199.981 261.578,-193.173 250.986,-193.432 253.46,-199.981"/>
</g>
<!-- work_thread_2&#45;&gt;result_queue -->
<g id="edge7" class="edge"><title>work_thread_2&#45;&gt;result_queue</title>
<path fill="none" stroke="black" d="M251.75,-247.207C260.235,-234.983 271.874,-218.214 281.489,-204.362"/>
<polygon fill="black" stroke="black" points="284.634,-205.969 287.461,-195.758 278.884,-201.978 284.634,-205.969"/>
</g>
<!-- ...&#45;&gt;result_queue -->
<g id="edge8" class="edge"><title>...&#45;&gt;result_queue</title>
<path fill="none" stroke="black" d="M348.089,-248.41C339.403,-236.106 327.11,-218.69 317.011,-204.383"/>
<polygon fill="black" stroke="black" points="319.684,-202.1 311.057,-195.949 313.965,-206.137 319.684,-202.1"/>
</g>
<!-- work_thread_n&#45;&gt;result_queue -->
<g id="edge9" class="edge"><title>work_thread_n&#45;&gt;result_queue</title>
<path fill="none" stroke="black" d="M445.678,-248.607C416.06,-234.543 372.128,-213.681 340.084,-198.465"/>
<polygon fill="black" stroke="black" points="341.502,-195.263 330.967,-194.135 338.499,-201.587 341.502,-195.263"/>
<text text-anchor="middle" x="433.093" y="-217.8" font-family="Ubuntu Mono" font-size="14.00">lock&#45;free</text>
</g>
<!-- join_thread -->
<g id="node8" class="node"><title>join_thread</title>
<ellipse fill="none" stroke="black" cx="299.093" cy="-105" rx="64.189" ry="18"/>
<text text-anchor="middle" x="299.093" y="-101.3" font-family="Ubuntu Mono" font-size="14.00">join_thread</text>
</g>
<!-- result_queue&#45;&gt;join_thread -->
<g id="edge10" class="edge"><title>result_queue&#45;&gt;join_thread</title>
<path fill="none" stroke="black" d="M299.093,-159.813C299.093,-151.789 299.093,-142.047 299.093,-133.069"/>
<polygon fill="black" stroke="black" points="302.594,-133.029 299.093,-123.029 295.594,-133.029 302.594,-133.029"/>
</g>
<!-- file/socket/etc -->
<g id="node9" class="node"><title>file/socket/etc</title>
<ellipse fill="none" stroke="black" cx="299.093" cy="-18" rx="83.6854" ry="18"/>
<text text-anchor="middle" x="299.093" y="-14.3" font-family="Ubuntu Mono" font-size="14.00">file/socket/etc</text>
</g>
<!-- join_thread&#45;&gt;file/socket/etc -->
<g id="edge11" class="edge"><title>join_thread&#45;&gt;file/socket/etc</title>
<path fill="none" stroke="black" d="M299.093,-86.799C299.093,-75.1626 299.093,-59.5479 299.093,-46.2368"/>
<polygon fill="black" stroke="black" points="302.594,-46.1754 299.093,-36.1754 295.594,-46.1755 302.594,-46.1754"/>
<text text-anchor="middle" x="374.593" y="-57.8" font-family="Ubuntu Mono" font-size="14.00">potentially blocking</text>
</g>
</g>
</svg>
